<svg width="269" height="294" viewBox="0 0 269 294" fill="none" xmlns="http://www.w3.org/2000/svg">
<mask id="path-1-outside-1_772_2802" maskUnits="userSpaceOnUse" x="-1" y="0" width="270" height="294" fill="black">
<rect fill="white" x="-1" width="270" height="294"/>
<path d="M85.2113 2V168.835C100.768 162.697 117.359 159.541 134.108 159.541C151.508 159.541 168.738 162.946 184.814 169.563C200.889 176.181 215.496 185.881 227.799 198.107C240.103 210.334 249.863 224.85 256.522 240.826C261.591 252.988 264.785 265.815 266.022 278.875C266.158 279.564 266.232 280.276 266.232 281.005C266.232 281.228 266.223 281.449 266.21 281.668C266.173 283.512 265.605 285.219 264.649 286.665C262.708 289.861 259.173 292 255.134 292H133.851C127.722 292 122.753 287.077 122.753 281.005C122.753 279.652 123.001 278.357 123.452 277.16C123.973 275.565 124.869 274.064 126.144 272.797L178.671 220.597C182.983 216.312 189.974 216.312 194.286 220.597C198.598 224.882 198.598 231.829 194.286 236.114L160.178 270.011H243.341C241.922 262.793 239.781 255.716 236.936 248.889C231.343 235.469 223.144 223.276 212.809 213.005C202.474 202.734 190.204 194.587 176.701 189.028C163.197 183.47 148.724 180.608 134.108 180.608C119.492 180.608 105.018 183.47 91.515 189.028C89.382 189.906 87.2799 190.849 85.2113 191.854V279.852C85.2112 285.454 81.1307 290.106 75.7621 291.041C74.9617 291.224 74.1289 291.324 73.2728 291.324H13.139C12.5291 291.324 11.9311 291.273 11.348 291.179C5.89298 290.743 1.587 286.206 2.03158 280.693C2.04143 280.571 2.05167 280.449 2.06186 280.327C2.06182 280.315 2.06186 280.304 2.06186 280.292C2.06186 279.607 2.12752 278.937 2.24741 278.287C3.52389 265.43 6.70054 252.806 11.6937 240.826C18.3524 224.85 28.1125 210.334 40.4164 198.107C47.0904 191.475 54.443 185.588 62.3392 180.531V23.9463H25.2699V168.946H2.3978V2H85.2113ZM62.3392 206.676C59.9436 208.684 57.6301 210.795 55.4066 213.005C45.0714 223.276 36.873 235.469 31.2796 248.889C28.5327 255.479 26.4418 262.302 25.0238 269.26H62.3392V206.676Z"/>
</mask>
<path d="M85.2113 2H87.2113V0H85.2113V2ZM85.2113 168.835H83.2113V171.774L85.9454 170.695L85.2113 168.835ZM134.108 159.541V157.541V159.541ZM184.814 169.563L185.575 167.714L185.575 167.714L184.814 169.563ZM227.799 198.107L229.209 196.689L227.799 198.107ZM256.522 240.826L258.368 240.057L258.368 240.057L256.522 240.826ZM266.022 278.875L264.031 279.064L264.04 279.164L264.06 279.264L266.022 278.875ZM266.232 281.005H268.232V281.005L266.232 281.005ZM266.21 281.668L264.214 281.548L264.212 281.588L264.211 281.628L266.21 281.668ZM264.649 286.665L262.98 285.562L262.959 285.594L262.939 285.627L264.649 286.665ZM255.134 292V294V292ZM133.851 292L133.851 294H133.851V292ZM122.753 281.005L120.753 281.005V281.005H122.753ZM123.452 277.16L125.323 277.865L125.339 277.824L125.353 277.781L123.452 277.16ZM126.144 272.797L127.554 274.216L127.554 274.215L126.144 272.797ZM178.671 220.597L180.081 222.015L178.671 220.597ZM194.286 220.597L195.696 219.178L195.696 219.178L194.286 220.597ZM194.286 236.114L195.696 237.533L195.696 237.533L194.286 236.114ZM160.178 270.011L158.768 268.592L155.328 272.011H160.178V270.011ZM243.341 270.011V272.011H245.773L245.304 269.625L243.341 270.011ZM236.936 248.889L235.09 249.658V249.658L236.936 248.889ZM212.809 213.005L214.219 211.586V211.586L212.809 213.005ZM176.701 189.028L175.939 190.878L175.939 190.878L176.701 189.028ZM134.108 180.608V178.608V180.608ZM91.515 189.028L92.2763 190.878L92.2763 190.878L91.515 189.028ZM85.2113 191.854L84.3371 190.056L83.2113 190.603V191.854H85.2113ZM85.2113 279.852L87.2113 279.852V279.852H85.2113ZM75.7621 291.041L75.419 289.071L75.3672 289.08L75.3161 289.091L75.7621 291.041ZM73.2728 291.324V293.324V291.324ZM13.139 291.324L13.1389 293.324H13.139V291.324ZM11.348 291.179L11.6678 289.204L11.5879 289.191L11.5071 289.185L11.348 291.179ZM2.03158 280.693L0.0380616 280.533L0.0380579 280.533L2.03158 280.693ZM2.06186 280.327L4.05492 280.494L4.06212 280.407L4.06185 280.321L2.06186 280.327ZM2.06186 280.292H0.0618583V280.292L2.06186 280.292ZM2.24741 278.287L4.21426 278.65L4.22938 278.568L4.23762 278.485L2.24741 278.287ZM11.6937 240.826L13.5398 241.596H13.5398L11.6937 240.826ZM40.4164 198.107L41.8261 199.526L41.8261 199.526L40.4164 198.107ZM62.3392 180.531L63.4177 182.216L64.3392 181.625V180.531H62.3392ZM62.3392 23.9463H64.3392V21.9463H62.3392V23.9463ZM25.2699 23.9463V21.9463H23.2699V23.9463H25.2699ZM25.2699 168.946V170.946H27.2699V168.946H25.2699ZM2.3978 168.946H0.397796V170.946H2.3978V168.946ZM2.3978 2V0H0.397796V2H2.3978ZM62.3392 206.676H64.3392V202.389L61.0543 205.143L62.3392 206.676ZM55.4066 213.005L53.9968 211.586L55.4066 213.005ZM31.2796 248.889L33.1257 249.658L33.1257 249.658L31.2796 248.889ZM25.0238 269.26L23.0641 268.86L22.575 271.26H25.0238V269.26ZM62.3392 269.26V271.26H64.3392V269.26H62.3392ZM85.2113 2H83.2113V168.835H85.2113H87.2113V2H85.2113ZM85.2113 168.835L85.9454 170.695C101.268 164.649 117.61 161.541 134.108 161.541V159.541V157.541C117.107 157.541 100.267 160.744 84.4772 166.975L85.2113 168.835ZM134.108 159.541V161.541C151.247 161.541 168.218 164.895 184.053 171.413L184.814 169.563L185.575 167.714C169.257 160.997 151.769 157.541 134.108 157.541V159.541ZM184.814 169.563L184.052 171.413C199.886 177.931 214.272 187.484 226.389 199.526L227.799 198.107L229.209 196.689C216.719 184.277 201.892 174.431 185.575 167.714L184.814 169.563ZM227.799 198.107L226.389 199.526C238.507 211.568 248.118 225.863 254.676 241.596L256.522 240.826L258.368 240.057C251.607 223.837 241.699 209.101 229.209 196.689L227.799 198.107ZM256.522 240.826L254.676 241.596C259.667 253.572 262.813 266.203 264.031 279.064L266.022 278.875L268.013 278.686C266.757 265.427 263.514 252.405 258.368 240.057L256.522 240.826ZM266.022 278.875L264.06 279.264C264.172 279.829 264.232 280.411 264.232 281.005L266.232 281.005L268.232 281.005C268.232 280.141 268.145 279.299 267.984 278.486L266.022 278.875ZM266.232 281.005H264.232C264.232 281.178 264.225 281.358 264.214 281.548L266.21 281.668L268.207 281.788C268.222 281.539 268.232 281.277 268.232 281.005H266.232ZM266.21 281.668L264.211 281.628C264.182 283.078 263.736 284.418 262.98 285.562L264.649 286.665L266.317 287.768C267.473 286.019 268.165 283.946 268.21 281.708L266.21 281.668ZM264.649 286.665L262.939 285.627C261.349 288.246 258.451 290 255.134 290V292V294C259.895 294 264.066 291.476 266.358 287.703L264.649 286.665ZM255.134 292V290H133.851V292V294H255.134V292ZM133.851 292L133.851 290C128.809 290 124.753 285.955 124.753 281.005H122.753H120.753C120.753 288.199 126.635 294 133.851 294L133.851 292ZM122.753 281.005L124.753 281.005C124.753 279.898 124.955 278.841 125.323 277.865L123.452 277.16L121.58 276.455C121.046 277.873 120.753 279.407 120.753 281.005L122.753 281.005ZM123.452 277.16L125.353 277.781C125.778 276.479 126.509 275.254 127.554 274.216L126.144 272.797L124.734 271.378C123.228 272.874 122.167 274.651 121.55 276.539L123.452 277.16ZM126.144 272.797L127.554 274.215L180.081 222.015L178.671 220.597L177.261 219.178L124.734 271.378L126.144 272.797ZM178.671 220.597L180.081 222.015C183.613 218.506 189.344 218.505 192.877 222.015L194.286 220.597L195.696 219.178C190.604 214.118 182.353 214.118 177.261 219.178L178.671 220.597ZM194.286 220.597L192.877 222.015C196.401 225.519 196.401 231.193 192.877 234.696L194.286 236.114L195.696 237.533C200.795 232.466 200.795 224.246 195.696 219.178L194.286 220.597ZM194.286 236.114L192.877 234.696L158.768 268.592L160.178 270.011L161.588 271.429L195.696 237.533L194.286 236.114ZM160.178 270.011V272.011H243.341V270.011V268.011H160.178V270.011ZM243.341 270.011L245.304 269.625C243.859 262.276 241.679 255.071 238.782 248.119L236.936 248.889L235.09 249.658C237.884 256.361 239.986 263.31 241.379 270.396L243.341 270.011ZM236.936 248.889L238.782 248.119C233.087 234.456 224.74 222.042 214.219 211.586L212.809 213.005L211.399 214.423C221.548 224.509 229.598 236.482 235.09 249.658L236.936 248.889ZM212.809 213.005L214.219 211.586C203.698 201.131 191.207 192.837 177.462 187.179L176.701 189.028L175.939 190.878C189.201 196.337 201.251 204.338 211.399 214.424L212.809 213.005ZM176.701 189.028L177.462 187.179C163.717 181.521 148.985 178.608 134.108 178.608V180.608V182.608C148.463 182.608 162.678 185.419 175.939 190.878L176.701 189.028ZM134.108 180.608V178.608C119.231 178.608 104.499 181.521 90.7537 187.179L91.515 189.028L92.2763 190.878C105.538 185.419 119.753 182.608 134.108 182.608V180.608ZM91.515 189.028L90.7537 187.179C88.5824 188.073 86.4426 189.032 84.3371 190.056L85.2113 191.854L86.0855 193.653C88.1172 192.666 90.1816 191.74 92.2763 190.878L91.515 189.028ZM85.2113 191.854H83.2113V279.852H85.2113H87.2113V191.854H85.2113ZM85.2113 279.852L83.2113 279.852C83.2112 284.456 79.8562 288.298 75.419 289.071L75.7621 291.041L76.1051 293.011C82.4052 291.914 87.2112 286.453 87.2113 279.852L85.2113 279.852ZM75.7621 291.041L75.3161 289.091C74.6556 289.242 73.9723 289.324 73.2728 289.324V291.324V293.324C74.2854 293.324 75.2679 293.206 76.208 292.991L75.7621 291.041ZM73.2728 291.324V289.324H13.139V291.324V293.324H73.2728V291.324ZM13.139 291.324L13.1391 289.324C12.641 289.324 12.1499 289.283 11.6678 289.204L11.348 291.179L11.0282 293.153C11.7123 293.264 12.4173 293.324 13.1389 293.324L13.139 291.324ZM11.348 291.179L11.5071 289.185C7.03462 288.828 3.67869 285.149 4.02511 280.854L2.03158 280.693L0.0380579 280.533C-0.504698 287.262 4.75134 292.659 11.1889 293.172L11.348 291.179ZM2.03158 280.693L4.02511 280.854C4.03467 280.736 4.04464 280.617 4.05492 280.494L2.06186 280.327L0.0687943 280.161C0.0587031 280.282 0.0481845 280.407 0.0380616 280.533L2.03158 280.693ZM2.06186 280.327L4.06185 280.321C4.06182 280.313 4.06186 280.313 4.06186 280.292L2.06186 280.292L0.0618583 280.292C0.0618583 280.295 0.0618199 280.318 0.0618681 280.333L2.06186 280.327ZM2.06186 280.292H4.06186C4.06186 279.735 4.1152 279.187 4.21426 278.65L2.24741 278.287L0.280553 277.924C0.139837 278.688 0.0618583 279.479 0.0618583 280.292H2.06186ZM2.24741 278.287L4.23762 278.485C5.49459 265.824 8.6227 253.393 13.5398 241.596L11.6937 240.826L9.84763 240.057C4.77839 252.219 1.5532 265.036 0.25719 278.09L2.24741 278.287ZM11.6937 240.826L13.5398 241.596C20.0969 225.863 29.7086 211.568 41.8261 199.526L40.4164 198.107L39.0066 196.689C26.5165 209.101 16.6078 223.837 9.84763 240.057L11.6937 240.826ZM40.4164 198.107L41.8261 199.526C48.399 192.994 55.6404 187.196 63.4177 182.216L62.3392 180.531L61.2607 178.847C53.2455 183.98 45.7819 189.956 39.0066 196.689L40.4164 198.107ZM62.3392 180.531H64.3392V23.9463H62.3392H60.3392V180.531H62.3392ZM62.3392 23.9463V21.9463H25.2699V23.9463V25.9463H62.3392V23.9463ZM25.2699 23.9463H23.2699V168.946H25.2699H27.2699V23.9463H25.2699ZM25.2699 168.946V166.946H2.3978V168.946V170.946H25.2699V168.946ZM2.3978 168.946H4.3978V2H2.3978H0.397796V168.946H2.3978ZM2.3978 2V4H85.2113V2V0H2.3978V2ZM62.3392 206.676L61.0543 205.143C58.6157 207.188 56.2606 209.337 53.9968 211.586L55.4066 213.005L56.8164 214.424C58.9997 212.254 61.2714 210.181 63.6241 208.208L62.3392 206.676ZM55.4066 213.005L53.9968 211.586C43.4754 222.042 35.1285 234.456 29.4336 248.119L31.2796 248.889L33.1257 249.658C38.6176 236.482 46.6675 224.509 56.8164 214.424L55.4066 213.005ZM31.2796 248.889L29.4336 248.119C26.6367 254.829 24.5079 261.776 23.0641 268.86L25.0238 269.26L26.9835 269.659C28.3758 262.828 30.4287 256.129 33.1257 249.658L31.2796 248.889ZM25.0238 269.26V271.26H62.3392V269.26V267.26H25.0238V269.26ZM62.3392 269.26H64.3392V206.676H62.3392H60.3392V269.26H62.3392Z" fill="#E67BE6" mask="url(#path-1-outside-1_772_2802)"/>
</svg>
