<svg width="145" height="22" viewBox="0 0 145 22" fill="none" xmlns="http://www.w3.org/2000/svg">
<path d="M20.9406 3.86419C20.8818 3.71953 20.7821 3.59587 20.6542 3.50886C20.5263 3.42184 20.376 3.37538 20.2221 3.37535H17.2636C16.8499 2.65908 16.2612 2.06394 15.5547 1.64778C14.8482 1.23161 14.0479 1.00859 13.2316 1.0004C12.6235 0.992281 12.0199 1.10804 11.4564 1.34086C10.8929 1.57368 10.3808 1.91886 9.95026 2.3561C9.50718 2.79866 9.1555 3.32691 8.9159 3.9098C8.6763 4.49269 8.55363 5.11845 8.55508 5.7503V6.35294C4.64078 5.30203 1.43915 2.06121 1.40512 2.02658C1.30077 1.91943 1.16851 1.84486 1.02392 1.81165C0.879322 1.77844 0.728416 1.78798 0.588969 1.83913C0.449521 1.89029 0.32734 1.98094 0.236812 2.1004C0.146285 2.21987 0.0911824 2.36317 0.0779926 2.51344C-0.341049 7.24256 1.00844 10.4072 2.21695 12.229C2.80621 13.1296 3.52306 13.9365 4.34424 14.6237C2.8635 16.3584 0.532035 17.2698 0.506757 17.2797C0.397003 17.3215 0.297957 17.3881 0.217021 17.4743C0.136085 17.5606 0.0753502 17.6644 0.0393559 17.7779C0.00336162 17.8914 -0.00696186 18.0118 0.00915657 18.1299C0.025275 18.2481 0.0674185 18.361 0.132439 18.4602C0.205358 18.5711 0.497034 18.96 1.2097 19.3231C2.09056 19.7724 3.25435 20 4.66606 20C11.537 20 17.2781 14.6148 17.8644 7.68588L20.7724 4.72709C20.8812 4.61632 20.9552 4.47521 20.9851 4.32161C21.0151 4.16801 20.9996 4.00883 20.9406 3.86419ZM16.5655 6.7745C16.4321 6.91056 16.352 7.09134 16.3399 7.28313C15.9442 13.5263 10.8185 18.4167 4.66606 18.4167C3.63936 18.4167 2.916 18.2782 2.40849 18.1119C3.52755 17.4934 5.08802 16.4297 6.09138 14.8978C6.15027 14.8077 6.1904 14.7063 6.20928 14.5999C6.22816 14.4934 6.2254 14.3841 6.20116 14.2788C6.17693 14.1734 6.13173 14.0742 6.06837 13.9874C6.00501 13.9005 5.92482 13.8278 5.83277 13.7737C5.78707 13.747 1.5636 11.1672 1.55485 4.27387C3.11045 5.5603 5.9543 7.55625 9.20357 8.11239C9.31493 8.1315 9.42904 8.12569 9.53798 8.09539C9.64692 8.06508 9.74806 8.01099 9.83438 7.93687C9.92071 7.86276 9.99014 7.77041 10.0379 7.66623C10.0856 7.56205 10.1104 7.44854 10.1107 7.3336V5.7503C10.1098 5.328 10.1919 4.90979 10.3522 4.52028C10.5125 4.13077 10.7477 3.77783 11.044 3.48222C11.3281 3.19257 11.6663 2.96382 12.0387 2.80949C12.4111 2.65516 12.8101 2.57839 13.2122 2.5837C14.443 2.59953 15.5932 3.36347 16.0745 4.48465C16.1352 4.62561 16.2349 4.74551 16.3615 4.8297C16.488 4.91388 16.636 4.95869 16.7872 4.95865H18.3428L16.5655 6.7745Z" fill="white"/>
<path d="M93.2086 5.7809C92.2286 5.7809 91.2706 6.07151 90.4557 6.61598C89.6409 7.16045 89.0058 7.93432 88.6307 8.83974C88.2557 9.74516 88.1576 10.7415 88.3488 11.7026C88.54 12.6638 89.0119 13.5467 89.7049 14.2397C90.3978 14.9327 91.2807 15.4046 92.2419 15.5958C93.2031 15.787 94.1994 15.6889 95.1048 15.3138C96.0102 14.9388 96.7841 14.3037 97.3286 13.4888C97.8731 12.674 98.1637 11.716 98.1637 10.736C98.1623 9.42221 97.6398 8.16267 96.7109 7.23371C95.7819 6.30475 94.5224 5.78227 93.2086 5.7809ZM93.2086 14.0393C92.5553 14.0393 91.9166 13.8456 91.3734 13.4826C90.8301 13.1196 90.4067 12.6037 90.1567 12.0001C89.9067 11.3965 89.8413 10.7323 89.9687 10.0915C90.0962 9.45071 90.4108 8.8621 90.8728 8.40012C91.3348 7.93813 91.9234 7.62352 92.5642 7.49606C93.2049 7.3686 93.8691 7.43401 94.4728 7.68404C95.0764 7.93406 95.5923 8.35746 95.9553 8.9007C96.3182 9.44394 96.512 10.0826 96.512 10.736C96.512 11.6121 96.1639 12.4523 95.5444 13.0718C94.9249 13.6913 94.0847 14.0393 93.2086 14.0393ZM98.1637 0L88.2536 0C86.7209 0.00163953 85.2514 0.611223 84.1677 1.695C83.0839 2.77877 82.4743 4.24821 82.4727 5.7809V15.691C82.4743 17.2237 83.0839 18.6931 84.1677 19.7769C85.2514 20.8607 86.7209 21.4703 88.2536 21.4719H98.1637C99.6964 21.4703 101.166 20.8607 102.25 19.7769C103.333 18.6931 103.943 17.2237 103.945 15.691V5.7809C103.943 4.24821 103.333 2.77877 102.25 1.695C101.166 0.611223 99.6964 0.00163953 98.1637 0ZM102.293 15.691C102.293 16.7861 101.858 17.8364 101.083 18.6108C100.309 19.3852 99.2588 19.8202 98.1637 19.8202H88.2536C87.1584 19.8202 86.1081 19.3852 85.3338 18.6108C84.5594 17.8364 84.1243 16.7861 84.1243 15.691V5.7809C84.1243 4.68576 84.5594 3.63548 85.3338 2.8611C86.1081 2.08673 87.1584 1.65169 88.2536 1.65169L98.1637 1.65169C99.2588 1.65169 100.309 2.08673 101.083 2.8611C101.858 3.63548 102.293 4.68576 102.293 5.7809V15.691ZM99.8154 5.36798C99.8154 5.61298 99.7427 5.85248 99.6066 6.0562C99.4705 6.25991 99.277 6.41869 99.0506 6.51245C98.8243 6.60621 98.5752 6.63074 98.3349 6.58294C98.0946 6.53514 97.8739 6.41716 97.7007 6.24392C97.5274 6.07067 97.4094 5.84995 97.3616 5.60965C97.3138 5.36935 97.3384 5.12028 97.4321 4.89392C97.5259 4.66757 97.6847 4.4741 97.8884 4.33798C98.0921 4.20187 98.3316 4.12921 98.5766 4.12921C98.9051 4.12921 99.2202 4.25973 99.4525 4.49204C99.6848 4.72435 99.8154 5.03944 99.8154 5.36798Z" fill="white"/>
<path d="M60.8202 0L42.6517 0C42.2136 0 41.7935 0.174016 41.4838 0.483767C41.174 0.793518 41 1.21363 41 1.65169V19.8202C41 20.2583 41.174 20.6784 41.4838 20.9881C41.7935 21.2979 42.2136 21.4719 42.6517 21.4719H60.8202C61.2583 21.4719 61.6784 21.2979 61.9881 20.9881C62.2979 20.6784 62.4719 20.2583 62.4719 19.8202V1.65169C62.4719 1.21363 62.2979 0.793518 61.9881 0.483767C61.6784 0.174016 61.2583 0 60.8202 0ZM60.8202 19.8202H42.6517V1.65169L60.8202 1.65169V19.8202ZM48.4326 9.08427V15.691C48.4326 15.91 48.3456 16.1201 48.1907 16.275C48.0358 16.4298 47.8258 16.5169 47.6067 16.5169C47.3877 16.5169 47.1777 16.4298 47.0228 16.275C46.8679 16.1201 46.7809 15.91 46.7809 15.691V9.08427C46.7809 8.86524 46.8679 8.65519 47.0228 8.50031C47.1777 8.34544 47.3877 8.25843 47.6067 8.25843C47.8258 8.25843 48.0358 8.34544 48.1907 8.50031C48.3456 8.65519 48.4326 8.86524 48.4326 9.08427ZM57.5169 11.9747V15.691C57.5169 15.91 57.4298 16.1201 57.275 16.275C57.1201 16.4298 56.91 16.5169 56.691 16.5169C56.472 16.5169 56.2619 16.4298 56.1071 16.275C55.9522 16.1201 55.8652 15.91 55.8652 15.691V11.9747C55.8652 11.4272 55.6476 10.902 55.2605 10.5148C54.8733 10.1276 54.3481 9.91011 53.8006 9.91011C53.253 9.91011 52.7279 10.1276 52.3407 10.5148C51.9535 10.902 51.736 11.4272 51.736 11.9747V15.691C51.736 15.91 51.6489 16.1201 51.4941 16.275C51.3392 16.4298 51.1291 16.5169 50.9101 16.5169C50.6911 16.5169 50.481 16.4298 50.3262 16.275C50.1713 16.1201 50.0843 15.91 50.0843 15.691V9.08427C50.0853 8.88198 50.1605 8.68711 50.2957 8.53662C50.4309 8.38612 50.6166 8.29047 50.8176 8.26781C51.0186 8.24515 51.2209 8.29705 51.3862 8.41368C51.5515 8.53031 51.6682 8.70354 51.7143 8.90052C52.2729 8.52153 52.9243 8.30188 53.5984 8.26516C54.2725 8.22843 54.9438 8.37601 55.5404 8.69206C56.1369 9.0081 56.6361 9.48067 56.9843 10.059C57.3325 10.6374 57.5166 11.2996 57.5169 11.9747ZM48.8455 6.19382C48.8455 6.43883 48.7729 6.67833 48.6367 6.88204C48.5006 7.08575 48.3072 7.24453 48.0808 7.33829C47.8544 7.43205 47.6054 7.45658 47.3651 7.40878C47.1248 7.36098 46.904 7.243 46.7308 7.06976C46.5576 6.89651 46.4396 6.67579 46.3918 6.43549C46.344 6.1952 46.3685 5.94612 46.4623 5.71977C46.556 5.49341 46.7148 5.29994 46.9185 5.16383C47.1222 5.02771 47.3617 4.95506 47.6067 4.95506C47.9353 4.95506 48.2504 5.08557 48.4827 5.31788C48.715 5.5502 48.8455 5.86528 48.8455 6.19382Z" fill="white"/>
<path d="M144.11 1.21255C143.997 1.10858 143.86 1.03944 143.712 1.01257C143.565 0.985692 143.413 1.00211 143.274 1.06005L124.773 8.76388C124.511 8.87236 124.289 9.06855 124.14 9.32289C123.992 9.57723 123.925 9.87596 123.95 10.1741C123.975 10.4723 124.091 10.7537 124.279 10.976C124.468 11.1984 124.719 11.3496 124.995 11.4069L129.789 12.4084V18.0957C129.788 18.4055 129.874 18.7084 130.037 18.9653C130.2 19.2221 130.431 19.421 130.701 19.5362C130.971 19.6535 131.268 19.6816 131.553 19.617C131.838 19.5524 132.098 19.398 132.3 19.1739L134.611 16.6231L138.279 20.0384C138.543 20.2881 138.884 20.4263 139.238 20.427C139.393 20.4268 139.547 20.4009 139.695 20.3502C139.936 20.2689 140.152 20.1218 140.323 19.9236C140.494 19.7254 140.613 19.483 140.669 19.2205L144.374 2.06831C144.407 1.91363 144.4 1.75225 144.354 1.6015C144.307 1.45075 144.223 1.31629 144.11 1.21255ZM138.529 4.70943L130.35 10.9417L125.822 9.99653L138.529 4.70943ZM131.249 18.0957V13.4837L133.512 15.5954L131.249 18.0957ZM139.24 18.8728L131.692 11.8305L142.556 3.54575L139.24 18.8728Z" fill="white"/>
</svg>
