<svg width="21" height="19" viewBox="0 0 21 19" fill="none" xmlns="http://www.w3.org/2000/svg">
<path d="M20.9406 2.86419C20.8818 2.71953 20.7821 2.59587 20.6542 2.50886C20.5263 2.42184 20.376 2.37538 20.2221 2.37535H17.2636C16.8499 1.65908 16.2612 1.06394 15.5547 0.647776C14.8482 0.231613 14.0479 0.00859379 13.2316 0.000399298C12.6235 -0.00771929 12.0199 0.108038 11.4564 0.340859C10.8929 0.573681 10.3808 0.918864 9.95026 1.3561C9.50718 1.79866 9.1555 2.32691 8.9159 2.9098C8.6763 3.49269 8.55363 4.11845 8.55508 4.7503V5.35294C4.64078 4.30203 1.43915 1.06121 1.40512 1.02658C1.30077 0.919427 1.16851 0.844858 1.02392 0.81165C0.879322 0.778442 0.728416 0.787978 0.588969 0.839135C0.449521 0.890292 0.32734 0.98094 0.236812 1.1004C0.146285 1.21987 0.0911824 1.36317 0.0779926 1.51344C-0.341049 6.24256 1.00844 9.40718 2.21695 11.229C2.80621 12.1296 3.52306 12.9365 4.34424 13.6237C2.8635 15.3584 0.532035 16.2698 0.506757 16.2797C0.397003 16.3215 0.297957 16.3881 0.217021 16.4743C0.136085 16.5606 0.0753502 16.6644 0.0393559 16.7779C0.00336162 16.8914 -0.00696186 17.0118 0.00915657 17.1299C0.025275 17.2481 0.0674185 17.361 0.132439 17.4602C0.205358 17.5711 0.497034 17.96 1.2097 18.3231C2.09056 18.7724 3.25435 19 4.66606 19C11.537 19 17.2781 13.6148 17.8644 6.68588L20.7724 3.72709C20.8812 3.61632 20.9552 3.47521 20.9851 3.32161C21.0151 3.16801 20.9996 3.00883 20.9406 2.86419ZM16.5655 5.7745C16.4321 5.91056 16.352 6.09134 16.3399 6.28313C15.9442 12.5263 10.8185 17.4167 4.66606 17.4167C3.63936 17.4167 2.916 17.2782 2.40849 17.1119C3.52755 16.4934 5.08802 15.4297 6.09138 13.8978C6.15027 13.8077 6.1904 13.7063 6.20928 13.5999C6.22816 13.4934 6.2254 13.3841 6.20116 13.2788C6.17693 13.1734 6.13173 13.0742 6.06837 12.9874C6.00501 12.9005 5.92482 12.8278 5.83277 12.7737C5.78707 12.747 1.5636 10.1672 1.55485 3.27387C3.11045 4.5603 5.9543 6.55625 9.20357 7.11239C9.31493 7.1315 9.42904 7.12569 9.53798 7.09539C9.64692 7.06508 9.74806 7.01099 9.83438 6.93687C9.92071 6.86276 9.99014 6.77041 10.0379 6.66623C10.0856 6.56205 10.1104 6.44854 10.1107 6.3336V4.7503C10.1098 4.328 10.1919 3.90979 10.3522 3.52028C10.5125 3.13077 10.7477 2.77783 11.044 2.48222C11.3281 2.19257 11.6663 1.96382 12.0387 1.80949C12.4111 1.65516 12.8101 1.57839 13.2122 1.5837C14.443 1.59953 15.5932 2.36347 16.0745 3.48465C16.1352 3.62561 16.2349 3.74551 16.3615 3.8297C16.488 3.91388 16.636 3.95869 16.7872 3.95865H18.3428L16.5655 5.7745Z" fill="white"/>
</svg>
