<svg width="22" height="22" viewBox="0 0 22 22" fill="none" xmlns="http://www.w3.org/2000/svg">
<path d="M19.8202 0L1.65169 0C1.21363 0 0.793518 0.174016 0.483767 0.483767C0.174016 0.793518 0 1.21363 0 1.65169L0 19.8202C0 20.2583 0.174016 20.6784 0.483767 20.9881C0.793518 21.2979 1.21363 21.4719 1.65169 21.4719H19.8202C20.2583 21.4719 20.6784 21.2979 20.9881 20.9881C21.2979 20.6784 21.4719 20.2583 21.4719 19.8202V1.65169C21.4719 1.21363 21.2979 0.793518 20.9881 0.483767C20.6784 0.174016 20.2583 0 19.8202 0ZM19.8202 19.8202H1.65169L1.65169 1.65169L19.8202 1.65169V19.8202ZM7.43258 9.08427V15.691C7.43258 15.91 7.34558 16.1201 7.1907 16.275C7.03583 16.4298 6.82577 16.5169 6.60674 16.5169C6.38771 16.5169 6.17766 16.4298 6.02278 16.275C5.86791 16.1201 5.7809 15.91 5.7809 15.691V9.08427C5.7809 8.86524 5.86791 8.65519 6.02278 8.50031C6.17766 8.34544 6.38771 8.25843 6.60674 8.25843C6.82577 8.25843 7.03583 8.34544 7.1907 8.50031C7.34558 8.65519 7.43258 8.86524 7.43258 9.08427ZM16.5169 11.9747V15.691C16.5169 15.91 16.4298 16.1201 16.275 16.275C16.1201 16.4298 15.91 16.5169 15.691 16.5169C15.472 16.5169 15.2619 16.4298 15.1071 16.275C14.9522 16.1201 14.8652 15.91 14.8652 15.691V11.9747C14.8652 11.4272 14.6476 10.902 14.2605 10.5148C13.8733 10.1276 13.3481 9.91011 12.8006 9.91011C12.253 9.91011 11.7279 10.1276 11.3407 10.5148C10.9535 10.902 10.736 11.4272 10.736 11.9747V15.691C10.736 15.91 10.6489 16.1201 10.4941 16.275C10.3392 16.4298 10.1291 16.5169 9.91011 16.5169C9.69109 16.5169 9.48103 16.4298 9.32615 16.275C9.17128 16.1201 9.08427 15.91 9.08427 15.691V9.08427C9.08529 8.88198 9.16053 8.68711 9.2957 8.53662C9.43087 8.38612 9.61658 8.29047 9.81759 8.26781C10.0186 8.24515 10.2209 8.29705 10.3862 8.41368C10.5515 8.53031 10.6682 8.70354 10.7143 8.90052C11.2729 8.52153 11.9243 8.30188 12.5984 8.26516C13.2725 8.22843 13.9438 8.37601 14.5404 8.69206C15.1369 9.0081 15.6361 9.48067 15.9843 10.059C16.3325 10.6374 16.5166 11.2996 16.5169 11.9747ZM7.84551 6.19382C7.84551 6.43883 7.77285 6.67833 7.63674 6.88204C7.50062 7.08575 7.30715 7.24453 7.0808 7.33829C6.85444 7.43205 6.60537 7.45658 6.36507 7.40878C6.12477 7.36098 5.90405 7.243 5.7308 7.06976C5.55756 6.89651 5.43958 6.67579 5.39178 6.43549C5.34398 6.1952 5.36851 5.94612 5.46227 5.71977C5.55603 5.49341 5.71481 5.29994 5.91852 5.16383C6.12224 5.02771 6.36174 4.95506 6.60674 4.95506C6.93528 4.95506 7.25037 5.08557 7.48268 5.31788C7.71499 5.5502 7.84551 5.86528 7.84551 6.19382Z" fill="white"/>
</svg>
