<svg width="22" height="20" viewBox="0 0 22 20" fill="none" xmlns="http://www.w3.org/2000/svg">
<path d="M21.1104 0.212549C20.9972 0.108583 20.8595 0.0394384 20.7122 0.0125651C20.5648 -0.0143081 20.4134 0.00210833 20.2741 0.0600458L1.773 7.76388C1.5108 7.87236 1.28881 8.06855 1.14046 8.32289C0.992116 8.57723 0.925435 8.87596 0.95046 9.17411C0.975484 9.47226 1.09086 9.7537 1.27922 9.97604C1.46757 10.1984 1.71872 10.3496 1.99484 10.4069L6.78855 11.4084V17.0957C6.78761 17.4055 6.87413 17.7084 7.03691 17.9653C7.19968 18.2221 7.4312 18.421 7.70147 18.5362C7.97132 18.6535 8.26808 18.6816 8.55317 18.617C8.83825 18.5524 9.09847 18.398 9.29998 18.1739L11.6115 15.6231L15.2787 19.0384C15.5432 19.2881 15.8845 19.4263 16.2381 19.427C16.3931 19.4268 16.5471 19.4009 16.6946 19.3502C16.9356 19.2689 17.1523 19.1218 17.3232 18.9236C17.4941 18.7254 17.6132 18.483 17.6687 18.2205L21.3742 1.06831C21.4073 0.913625 21.4003 0.752255 21.3538 0.6015C21.3073 0.450745 21.2232 0.316291 21.1104 0.212549ZM15.5288 3.70943L7.35 9.94166L2.82194 8.99653L15.5288 3.70943ZM8.24922 17.0957V12.4837L10.5123 14.5954L8.24922 17.0957ZM16.24 17.8728L8.69198 10.8305L19.5557 2.54575L16.24 17.8728Z" fill="white"/>
</svg>
