<svg width="22" height="22" viewBox="0 0 22 22" fill="none" xmlns="http://www.w3.org/2000/svg">
<path d="M11.2086 5.7809C10.2286 5.7809 9.27058 6.07151 8.45573 6.61598C7.64087 7.16045 7.00577 7.93432 6.63074 8.83974C6.2557 9.74516 6.15757 10.7415 6.34877 11.7026C6.53996 12.6638 7.01188 13.5467 7.70486 14.2397C8.39784 14.9327 9.28074 15.4046 10.2419 15.5958C11.2031 15.787 12.1994 15.6889 13.1048 15.3138C14.0102 14.9388 14.7841 14.3037 15.3286 13.4888C15.8731 12.674 16.1637 11.716 16.1637 10.736C16.1623 9.42221 15.6398 8.16267 14.7109 7.23371C13.7819 6.30475 12.5224 5.78227 11.2086 5.7809ZM11.2086 14.0393C10.5553 14.0393 9.91659 13.8456 9.37336 13.4826C8.83012 13.1196 8.40672 12.6037 8.15669 12.0001C7.90667 11.3965 7.84125 10.7323 7.96871 10.0915C8.09618 9.45071 8.41079 8.8621 8.87278 8.40012C9.33476 7.93813 9.92336 7.62352 10.5642 7.49606C11.2049 7.3686 11.8691 7.43401 12.4728 7.68404C13.0764 7.93406 13.5923 8.35746 13.9553 8.9007C14.3182 9.44394 14.512 10.0826 14.512 10.736C14.512 11.6121 14.1639 12.4523 13.5444 13.0718C12.9249 13.6913 12.0847 14.0393 11.2086 14.0393ZM16.1637 0L6.25356 0C4.72087 0.00163953 3.25143 0.611223 2.16765 1.695C1.08388 2.77877 0.474296 4.24821 0.472656 5.7809L0.472656 15.691C0.474296 17.2237 1.08388 18.6931 2.16765 19.7769C3.25143 20.8607 4.72087 21.4703 6.25356 21.4719H16.1637C17.6964 21.4703 19.1658 20.8607 20.2496 19.7769C21.3333 18.6931 21.9429 17.2237 21.9446 15.691V5.7809C21.9429 4.24821 21.3333 2.77877 20.2496 1.695C19.1658 0.611223 17.6964 0.00163953 16.1637 0ZM20.2929 15.691C20.2929 16.7861 19.8578 17.8364 19.0835 18.6108C18.3091 19.3852 17.2588 19.8202 16.1637 19.8202H6.25356C5.15842 19.8202 4.10814 19.3852 3.33376 18.6108C2.55938 17.8364 2.12434 16.7861 2.12434 15.691V5.7809C2.12434 4.68576 2.55938 3.63548 3.33376 2.8611C4.10814 2.08673 5.15842 1.65169 6.25356 1.65169L16.1637 1.65169C17.2588 1.65169 18.3091 2.08673 19.0835 2.8611C19.8578 3.63548 20.2929 4.68576 20.2929 5.7809V15.691ZM17.8154 5.36798C17.8154 5.61298 17.7427 5.85248 17.6066 6.0562C17.4705 6.25991 17.277 6.41869 17.0506 6.51245C16.8243 6.60621 16.5752 6.63074 16.3349 6.58294C16.0946 6.53514 15.8739 6.41716 15.7007 6.24392C15.5274 6.07067 15.4094 5.84995 15.3616 5.60965C15.3138 5.36935 15.3384 5.12028 15.4321 4.89392C15.5259 4.66757 15.6847 4.4741 15.8884 4.33798C16.0921 4.20187 16.3316 4.12921 16.5766 4.12921C16.9051 4.12921 17.2202 4.25973 17.4525 4.49204C17.6848 4.72435 17.8154 5.03944 17.8154 5.36798Z" fill="white"/>
</svg>
